<svg width="180" height="32" viewBox="0 0 180 32" fill="none" xmlns="http://www.w3.org/2000/svg">
<path d="M0.992 12.48C0.992 11.0933 1.23733 9.73867 1.728 8.416C2.24 7.072 2.976 5.856 3.936 4.768C4.896 3.65867 6.06933 2.784 7.456 2.144C8.84267 1.48267 10.4213 1.152 12.192 1.152C14.2827 1.152 16.0853 1.61067 17.6 2.528C19.136 3.44533 20.2773 4.64 21.024 6.112L17.632 8.448C17.248 7.59467 16.7467 6.92267 16.128 6.432C15.5093 5.92 14.848 5.568 14.144 5.376C13.44 5.16267 12.7467 5.056 12.064 5.056C10.9547 5.056 9.984 5.28 9.152 5.728C8.34133 6.176 7.65867 6.76267 7.104 7.488C6.54933 8.21333 6.13333 9.024 5.856 9.92C5.6 10.816 5.472 11.712 5.472 12.608C5.472 13.6107 5.632 14.5813 5.952 15.52C6.272 16.4373 6.72 17.2587 7.296 17.984C7.89333 18.688 8.59733 19.2533 9.408 19.68C10.24 20.0853 11.1467 20.288 12.128 20.288C12.832 20.288 13.5467 20.1707 14.272 19.936C14.9973 19.7013 15.6693 19.328 16.288 18.816C16.9067 18.304 17.3867 17.6427 17.728 16.832L21.344 18.912C20.896 20.0427 20.16 21.0027 19.136 21.792C18.1333 22.5813 17.0027 23.1787 15.744 23.584C14.4853 23.9893 13.2373 24.192 12 24.192C10.3787 24.192 8.896 23.8613 7.552 23.2C6.208 22.5173 5.04533 21.6213 4.064 20.512C3.104 19.3813 2.34667 18.1227 1.792 16.736C1.25867 15.328 0.992 13.9093 0.992 12.48ZM33.8735 10.944C32.5722 10.944 31.4095 11.2 30.3855 11.712C29.3615 12.2027 28.6255 12.9173 28.1775 13.856V24H23.8895V7.232H27.8255V10.816C28.4228 9.664 29.1802 8.75733 30.0975 8.096C31.0148 7.43467 31.9855 7.072 33.0095 7.008C33.2442 7.008 33.4255 7.008 33.5535 7.008C33.6815 7.008 33.7882 7.01867 33.8735 7.04V10.944ZM36.6165 27.264C37.0005 27.3493 37.3525 27.424 37.6725 27.488C38.0138 27.552 38.3018 27.584 38.5365 27.584C38.9418 27.584 39.2725 27.4773 39.5285 27.264C39.8058 27.072 40.0725 26.7093 40.3285 26.176C40.5845 25.664 40.8512 24.9387 41.1285 24L34.5045 7.232H38.9525L43.4645 19.616L47.4325 7.232H51.5285L44.4885 27.328C44.2325 28.0747 43.8378 28.7467 43.3045 29.344C42.7925 29.9627 42.1418 30.4427 41.3525 30.784C40.5845 31.1467 39.7205 31.328 38.7605 31.328C38.4192 31.328 38.0778 31.296 37.7365 31.232C37.3952 31.1893 37.0218 31.104 36.6165 30.976V27.264ZM63.9063 24.32C62.6049 24.32 61.4529 24.032 60.4503 23.456C59.4689 22.8587 58.7009 22.0587 58.1463 21.056V30.816H53.8583V7.232H57.6023V10.112C58.2423 9.13067 59.0529 8.36267 60.0343 7.808C61.0156 7.232 62.1356 6.944 63.3943 6.944C64.5249 6.944 65.5596 7.168 66.4983 7.616C67.4583 8.064 68.2903 8.69333 68.9943 9.504C69.6983 10.2933 70.2423 11.2107 70.6263 12.256C71.0316 13.28 71.2343 14.3893 71.2343 15.584C71.2343 17.2053 70.9143 18.6773 70.2743 20C69.6556 21.3227 68.7916 22.3787 67.6823 23.168C66.5943 23.936 65.3356 24.32 63.9063 24.32ZM62.4663 20.672C63.1276 20.672 63.7249 20.5333 64.2583 20.256C64.7916 19.9787 65.2503 19.6053 65.6343 19.136C66.0396 18.6453 66.3383 18.1013 66.5303 17.504C66.7436 16.8853 66.8503 16.2453 66.8503 15.584C66.8503 14.88 66.7329 14.2293 66.4983 13.632C66.2849 13.0347 65.9649 12.512 65.5383 12.064C65.1116 11.5947 64.6103 11.232 64.0343 10.976C63.4796 10.72 62.8716 10.592 62.2103 10.592C61.8049 10.592 61.3889 10.6667 60.9623 10.816C60.5569 10.944 60.1623 11.136 59.7783 11.392C59.3943 11.648 59.0529 11.9467 58.7543 12.288C58.4769 12.6293 58.2743 13.0027 58.1463 13.408V17.344C58.4023 17.9627 58.7436 18.528 59.1703 19.04C59.6183 19.552 60.1303 19.9573 60.7063 20.256C61.2823 20.5333 61.8689 20.672 62.4663 20.672ZM83.9688 23.136C83.6061 23.2853 83.1688 23.456 82.6568 23.648C82.1448 23.84 81.5901 23.9893 80.9928 24.096C80.4168 24.224 79.8301 24.288 79.2328 24.288C78.4434 24.288 77.7181 24.1493 77.0568 23.872C76.3954 23.5947 75.8621 23.1573 75.4568 22.56C75.0728 21.9413 74.8808 21.1413 74.8808 20.16V10.528H72.6728V7.232H74.8808V1.792H79.1688V7.232H82.6888V10.528H79.1688V18.72C79.1901 19.296 79.3501 19.712 79.6488 19.968C79.9474 20.224 80.3208 20.352 80.7688 20.352C81.2168 20.352 81.6541 20.2773 82.0808 20.128C82.5074 19.9787 82.8488 19.8507 83.1048 19.744L83.9688 23.136ZM93.7585 24.32C92.3932 24.32 91.1665 24.096 90.0785 23.648C88.9905 23.1787 88.0625 22.5387 87.2945 21.728C86.5478 20.9173 85.9718 19.9893 85.5665 18.944C85.1612 17.8987 84.9585 16.8 84.9585 15.648C84.9585 14.4747 85.1612 13.3653 85.5665 12.32C85.9718 11.2747 86.5478 10.3467 87.2945 9.536C88.0625 8.72533 88.9905 8.096 90.0785 7.648C91.1665 7.17867 92.3932 6.944 93.7585 6.944C95.1238 6.944 96.3398 7.17867 97.4065 7.648C98.4945 8.096 99.4225 8.72533 100.191 9.536C100.959 10.3467 101.535 11.2747 101.919 12.32C102.324 13.3653 102.527 14.4747 102.527 15.648C102.527 16.8 102.324 17.8987 101.919 18.944C101.535 19.9893 100.959 20.9173 100.191 21.728C99.4438 22.5387 98.5265 23.1787 97.4385 23.648C96.3505 24.096 95.1238 24.32 93.7585 24.32ZM89.3745 15.648C89.3745 16.6293 89.5665 17.504 89.9505 18.272C90.3345 19.0187 90.8572 19.6053 91.5185 20.032C92.1798 20.4587 92.9265 20.672 93.7585 20.672C94.5692 20.672 95.3052 20.4587 95.9665 20.032C96.6278 19.584 97.1505 18.9867 97.5345 18.24C97.9398 17.472 98.1425 16.5973 98.1425 15.616C98.1425 14.656 97.9398 13.792 97.5345 13.024C97.1505 12.256 96.6278 11.6587 95.9665 11.232C95.3052 10.8053 94.5692 10.592 93.7585 10.592C92.9265 10.592 92.1798 10.816 91.5185 11.264C90.8572 11.6907 90.3345 12.288 89.9505 13.056C89.5665 13.8027 89.3745 14.6667 89.3745 15.648Z" fill="white"/>
<path d="M113.613 1.344H117.709L120.301 8.864L122.925 1.344H126.989L123.085 11.68L125.965 18.912L132.397 1.28H137.197L128.109 24H124.301L120.301 14.464L116.333 24H112.525L103.469 1.28H108.205L114.669 18.912L117.485 11.68L113.613 1.344ZM139.108 24V7.232H143.396V24H139.108ZM139.108 4.896V0.639999H143.396V4.896H139.108ZM153.441 24.32C152.011 24.32 150.646 24.0853 149.345 23.616C148.043 23.1467 146.923 22.4533 145.985 21.536L147.521 18.752C148.523 19.5627 149.505 20.16 150.465 20.544C151.446 20.928 152.385 21.12 153.281 21.12C154.113 21.12 154.774 20.9707 155.265 20.672C155.777 20.3733 156.033 19.9253 156.033 19.328C156.033 18.9227 155.894 18.6133 155.617 18.4C155.339 18.1653 154.934 17.9627 154.401 17.792C153.889 17.6213 153.259 17.4293 152.513 17.216C151.275 16.8107 150.241 16.416 149.409 16.032C148.577 15.648 147.947 15.168 147.521 14.592C147.115 13.9947 146.913 13.2373 146.913 12.32C146.913 11.2107 147.19 10.2613 147.745 9.472C148.321 8.66133 149.11 8.032 150.113 7.584C151.137 7.136 152.331 6.912 153.697 6.912C154.891 6.912 156.022 7.104 157.089 7.488C158.155 7.85067 159.126 8.448 160.001 9.28L158.273 12C157.419 11.3387 156.609 10.8587 155.841 10.56C155.073 10.24 154.294 10.08 153.505 10.08C153.057 10.08 152.63 10.1333 152.225 10.24C151.841 10.3467 151.521 10.528 151.265 10.784C151.03 11.0187 150.913 11.36 150.913 11.808C150.913 12.2133 151.019 12.5333 151.233 12.768C151.467 12.9813 151.809 13.1733 152.257 13.344C152.726 13.5147 153.291 13.7067 153.953 13.92C155.297 14.304 156.427 14.6987 157.345 15.104C158.283 15.5093 158.987 16.0107 159.457 16.608C159.926 17.184 160.161 17.984 160.161 19.008C160.161 20.672 159.553 21.9733 158.337 22.912C157.121 23.8507 155.489 24.32 153.441 24.32ZM170.853 24.32C169.509 24.32 168.293 24.096 167.205 23.648C166.117 23.1787 165.189 22.5493 164.421 21.76C163.653 20.9493 163.056 20.032 162.629 19.008C162.224 17.9627 162.021 16.864 162.021 15.712C162.021 14.112 162.373 12.6507 163.077 11.328C163.802 10.0053 164.826 8.94933 166.149 8.16C167.493 7.34933 169.072 6.944 170.885 6.944C172.72 6.944 174.288 7.34933 175.589 8.16C176.89 8.94933 177.882 10.0053 178.565 11.328C179.269 12.6293 179.621 14.0373 179.621 15.552C179.621 15.808 179.61 16.0747 179.589 16.352C179.568 16.608 179.546 16.8213 179.525 16.992H166.565C166.65 17.8453 166.896 18.592 167.301 19.232C167.728 19.872 168.261 20.3627 168.901 20.704C169.562 21.024 170.266 21.184 171.013 21.184C171.866 21.184 172.666 20.9813 173.413 20.576C174.181 20.1493 174.704 19.5947 174.981 18.912L178.661 19.936C178.256 20.7893 177.669 21.5467 176.901 22.208C176.154 22.8693 175.269 23.392 174.245 23.776C173.221 24.1387 172.09 24.32 170.853 24.32ZM166.469 14.272H175.237C175.152 13.4187 174.906 12.6827 174.501 12.064C174.117 11.424 173.605 10.9333 172.965 10.592C172.325 10.2293 171.61 10.048 170.821 10.048C170.053 10.048 169.349 10.2293 168.709 10.592C168.09 10.9333 167.578 11.424 167.173 12.064C166.789 12.6827 166.554 13.4187 166.469 14.272Z" fill="#0FAE96"/>
</svg>
